# xmcd CD database file
#
# Track frame offsets:
#	150
#	17347
#	35600
#	58252
#	79840
#	100685
#	118407
#	137467
#	156200
#	183662
#	202222
#	228190
#	250502
#	268992
#
# Disc length: 3839 seconds
#
# Revision: 4
# Processed by: cddbd v1.5.2PL0 Copyright (c) Steve Scherf et al.
# Submitted via: CDex 1.51
#
DISCID=c10efd0e
DTITLE=Lonnie Brooks - Roadhouse Rules
DYEAR=1996
DGENRE=Blues
TTITLE0=Hoodoo She Do
TTITLE1=Backbone Man
TTITLE2=Too Little Too Late
TTITLE3=Stranger In My House
TTITLE4=I Need A Friend
TTITLE5=Evil Twin
TTITLE6=Roll Of The Tumbling Dice
TTITLE7=One Track Train
TTITLE8=Before You Go
TTITLE9=Get Through To You
TTITLE10=It's Your World
TTITLE11=Treat Me Like Your Dog
TTITLE12=Stake My Claim
TTITLE13=Rockin' Red Rooster
EXTD=YEAR: 1996
EXTT0=
EXTT1=
EXTT2=
EXTT3=
EXTT4=
EXTT5=
EXTT6=
EXTT7=
EXTT8=
EXTT9=
EXTT10=
EXTT11=
EXTT12=
EXTT13=
PLAYORDER=
